# AST/ASF file generated using VICON BodyLanguage
# -----------------------------------------------
:version 1.10
:name VICON
:units
  mass 1.0
  length 0.45
  angle deg
:documentation
   .ast/.asf automatically generated from VICON data using
   VICON BodyBuilder and BodyLanguage model FoxedUp or BRILLIANT.MOD
:root
   order TX TY TZ RX RY RZ
   axis XYZ
   position 0 0 0  
   orientation 0 0 0 
:bonedata
  begin
     id 1 
     name lhipjoint
     direction 0.645422 -0.672597 0.361999 
     length 2.39934 
     axis 0 0 0  XYZ
  end
  begin
     id 2 
     name lfemur
     direction 0.34202 -0.939693 0  
     length 6.58112  
     axis 0 0 20  XYZ
    dof rx ry rz
    limits (-160.0 20.0)
           (-70.0 70.0)
           (-60.0 70.0)
  end
  begin
     id 3 
     name ltibia
     direction 0.34202 -0.939693 0   
     length 7.02673   
     axis 0 0 20   XYZ
    dof rx
    limits (-10.0 170.0)
  end
  begin
     id 4 
     name lfoot
     direction 0.0835106 -0.229444 0.969733   
     length 2.08772   
     axis -90 7.62852e-016 20   XYZ
    dof rx rz
    limits (-45.0 90.0)
           (-70.0 20.0)
  end
  begin
     id 5 
     name ltoes
     direction 1.5358e-011 -4.21925e-011 1   
     length 1.04844   
     axis -90 7.62852e-016 20   XYZ
    dof rx
    limits (-90.0 20.0)
  end
  begin
     id 6 
     name rhipjoint
     direction -0.644959 -0.672941 0.362185   
     length 2.39812  
     axis 0 0 0  XYZ 
  end
  begin
     id 7 
     name rfemur
     direction -0.34202 -0.939693 0   
     length 6.67015   
     axis 0 0 -20   XYZ
    dof rx ry rz
    limits (-160.0 20.0)
           (-70.0 70.0)
           (-70.0 60.0)
  end
  begin
     id 8 
     name rtibia
     direction -0.34202 -0.939693 0   
     length 7.35735   
     axis 0 0 -20   XYZ
    dof rx
    limits (-10.0 170.0)
 end
 begin
     id 9 
     name rfoot
     direction -0.0670769 -0.184292 0.98058   
     length 2.25469  
     axis -90 -7.62852e-016 -20   XYZ
    dof rx rz
    limits (-45.0 90.0)
           (-20.0 70.0)
  end
  begin
     id 10 
     name rtoes
     direction -1.53575e-011 -4.21908e-011 1   
     length 1.13399   
     axis -90 -7.62852e-016 -20   XYZ
    dof rx
    limits (-90.0 20.0)
  end
  begin
     id 11 
     name lowerback
     direction -0.0188328 0.993434 -0.112847   
     length 2.27656   
     axis 0 0 0   XYZ
    dof rx ry rz
    limits (-20.0 45.0)
           (-30.0 30.0)
           (-30.0 30.0)
  end
  begin
     id 12 
     name upperback
     direction 0.00983139 0.998968 -0.04435   
     length 2.28631   
     axis 0 0 0   XYZ
    dof rx ry rz
    limits (-20.0 45.0)
           (-30.0 30.0)
           (-30.0 30.0)
  end
  begin
     id 13 
     name thorax
     direction 0.0177718 0.999807 0.00833073   
     length 2.30999   
     axis 0 0 0   XYZ
    dof rx ry rz
    limits (-20.0 45.0)
           (-30.0 30.0)
           (-30.0 30.0)
  end
  begin
     id 14 
     name lowerneck
     direction -0.0835025 0.993181 0.0813558   
     length 1.39447   
     axis 0 0 0   XYZ
    dof rx ry rz
    limits (-20.0 45.0)
           (-30.0 30.0)
           (-30.0 30.0)
  end
  begin
     id 15 
     name upperneck
     direction 0.210059 0.976535 0.0474817   
     length 1.39882   
     axis 0 0 0   XYZ
    dof rx ry rz
    limits (-20.0 45.0)
           (-30.0 30.0)
           (-30.0 30.0)
  end
  begin
     id 16
     name head
     direction 0.0780891 0.996944 -0.00207154  
     length 1.41828  
     axis 0 0 0   XYZ
    dof rx ry rz
    limits (-20.0 45.0)
           (-30.0 30.0)
           (-30.0 30.0)
  end
  begin
     id 17 
     name lclavicle
     direction 0.982414 0.166355 -0.0847829  
     length 3.57922  
     axis 0 0 0   XYZ
    dof ry rz
    limits (-20.0 10.0)
           (0.0 20.0)
  end
  begin
     id 18 
     name lhumerus
     direction 1 -4.48975e-011 5.47647e-028   
     length 4.76405   
     axis -180 -30 -90   XYZ
    dof rx ry rz
    limits (-60.0 90.0)
           (-90.0 90.0)
           (-90.0 90.0)
  end
  begin
     id 19
     name lradius
     direction 1 -4.48949e-011 -8.32142e-027   
     length 3.13759   
     axis -180 -30 -90   XYZ
    dof rx
    limits (-10.0 170.0)
  end
  begin
     id 20
     name lwrist
     direction 1 -4.48978e-011 -1.32705e-026   
     length 1.56879   
     axis 9.60836e-015 90 90   XYZ
    dof ry
    limits (-180.0 0.0)
 end
  begin
     id 21 
     name lhand
     direction 1 -4.48975e-011 -2.65409e-026   
     length 0.732262   
     axis 1.69354e-014 90 90   XYZ
    dof rx rz
    limits (-90.0 90.0)
           (-45.0 45.0)
  end
  begin
     id 22 
     name lfingers
     direction 1 -4.48923e-011 -5.30819e-026   
     length 0.590368   
     axis 3.38708e-014 90 90   XYZ
    dof rx
    limits (0.0 90.0)
  end
  begin
     id 23
     name lthumb
     direction 0.707107 -6.34914e-011 0.707107   
     length 0.847654   
     axis -90 45 2.85299e-015   XYZ
    dof rx rz
    limits (-45.0 45.0)
           (-45.0 45.0)
  end
  begin
     id 24 
     name rclavicle
     direction -0.963658 0.245183 -0.106063   
     length 3.43472  
     axis 0 0 0   XYZ 
    dof ry rz
    limits (-10.0 20.0)
           (-20.0 0.0)
  end
  begin
     id 25 
     name rhumerus
     direction -1 -4.48963e-011 -1.64784e-027  
     length 5.10161   
     axis -180 30 90   XYZ
    dof rx ry rz
    limits (-90.0 60.0)
           (-90.0 90.0)
           (-90.0 90.0)
  end
  begin
     id 26 
     name rradius
     direction -1 -4.48969e-011 -2.87943e-027   
     length 3.23267   
     axis -180 30 90   XYZ
    dof rx
    limits (-10.0 170.0)
  end
  begin
     id 27 
     name rwrist
     direction -1 -4.48982e-011 -1.32705e-026   
     length 1.61633   
     axis 9.60836e-015 -90 -90   XYZ
    dof ry
    limits (-180.0 0.0)
  end
  begin
     id 28
     name rhand
     direction -1 -4.48963e-011 -2.65409e-026   
     length 0.702   
     axis 1.69354e-014 -90 -90   XYZ
    dof rx rz
    limits (-90.0 90.0)
           (-45.0 45.0)
  end
  begin
     id 29
     name rfingers
     direction -1 -4.48934e-011 -5.30819e-026   
     length 0.565971   
     axis 3.38708e-014 -90 -90   XYZ
    dof rx
    limits (0.0 90.0)
  end
  begin
     id 30
     name rthumb
     direction -0.707107 -6.34908e-011 0.707107   
     length 0.812624   
     axis -90 -45 -2.85299e-015   XYZ
    dof rx rz
    limits (-45.0 45.0)
           (-45.0 45.0)
  end
:hierarchy
  begin
    root lhipjoint rhipjoint lowerback
    lhipjoint lfemur
    lfemur ltibia
    ltibia lfoot
    lfoot ltoes
    rhipjoint rfemur
    rfemur rtibia
    rtibia rfoot
    rfoot rtoes
    lowerback upperback
    upperback thorax
    thorax lowerneck lclavicle rclavicle
    lowerneck upperneck
    upperneck head
    lclavicle lhumerus
    lhumerus lradius
    lradius lwrist
    lwrist lhand lthumb
    lhand lfingers
    rclavicle rhumerus
    rhumerus rradius
    rradius rwrist
    rwrist rhand rthumb
    rhand rfingers
  end

#!OML:ASF \\sashay\E\basketball\basketball\Project 1\Capture day 1\Session 1\Subject.ASF
:FULLY-SPECIFIED
:DEGREES
17
root -33.9378 15.1586 2.27601 -32.8306 85.463 -28.9042
lowerback 21.5325 -0.428071 -9.29081
upperback 9.88102 -1.54901 1.61796
thorax -0.790428 -0.831857 7.37409
lowerneck -8.65784 0.996748 -10.4577
upperneck -10.0107 3.49932 15.1258
head -1.89341 2.10216 6.42071
rclavicle -4.57205e-015 5.56597e-015
rhumerus -25.5411 -27.3752 -65.8291
rradius 70.4941
rwrist -19.4341
rhand -22.9705 31.4596
rfingers 7.12502
rthumb 3.47159 1.50812
lclavicle -4.57205e-015 5.56597e-015
lhumerus -39.2108 -19.3714 86.3553
lradius 64.9876
lwrist 34.6139
lhand -27.5096 36.3281
lfingers 7.12502
lthumb -0.912242 66.3059
rfemur -37.5046 -8.749 14.159
rtibia 65.401
rfoot -8.83727 -8.98746
rtoes -39.5231
lfemur -20.9587 13.5903 -2.91386
ltibia 73.989
lfoot -4.36132 -3.03596
ltoes -18.0386
18
root -33.5742 15.1426 2.29066 -33.9516 85.4912 -29.6576
lowerback 21.0359 -0.746335 -8.42804
upperback 10.0971 -1.75394 1.13266
thorax -0.341738 -0.915605 6.36681
lowerneck -9.47871 1.24515 -9.18071
upperneck -9.19532 3.70075 14.8806
head -1.52855 2.21108 6.13116
rclavicle 1.23246e-014 -7.95139e-015
rhumerus -26.9547 -30.5496 -65.0473
rradius 69.7236
rwrist -23.3866
rhand -18.9997 28.9354
rfingers 7.12502
rthumb 7.30548 -0.918489
lclavicle 1.23246e-014 -7.95139e-015
lhumerus -38.2789 -20.0891 86.8895
lradius 64.9694
lwrist 33.808
lhand -27.7643 38.2417
lfingers 7.12502
lthumb -1.15825 68.2183
rfemur -37.165 -8.3956 13.063
rtibia 63.8241
rfoot -8.0985 -8.8148
rtoes -40.2241
lfemur -19.024 13.7197 -2.51209
ltibia 72.9093
lfoot -4.8704 -5.15371
ltoes -22.5573
19
root -33.2129 15.1162 2.3112 -34.4675 85.4187 -29.8358
lowerback 20.2909 -1.0575 -8.21929
upperback 10.3736 -2.04013 1.12863
thorax 0.372493 -1.09052 6.26609
lowerneck -9.84046 1.58359 -8.73518
upperneck -8.78918 4.07138 14.4659
head -1.38916 2.40247 5.92992
rclavicle -1.51076e-014 -7.95139e-015
rhumerus -27.3868 -32.5726 -64.1591
rradius 68.4254
rwrist -28.1044
rhand -15.5173 26.8255
rfingers 7.12502
rthumb 10.6658 -2.88375
lclavicle -1.51076e-014 -7.95139e-015
lhumerus -36.8502 -19.8055 88.0149
lradius 64.5484
lwrist 33.4244
lhand -28.1887 40.7966
lfingers 7.12502
lthumb -1.56813 70.7706
rfemur -36.9704 -7.8995 12.0593
rtibia 62.4079
rfoot -7.22628 -8.5671
rtoes -40.6609
lfemur -17.0843 13.9792 -2.20194
ltibia 71.4482
lfoot -5.59017 -6.27038
ltoes -27.9913
20
root -32.852 15.0627 2.32893 -32.1468 85.3157 -27.2069
lowerback 20.6899 -1.22834 -8.94569
upperback 9.69405 -2.4973 1.68546
thorax -0.413965 -1.32655 7.40818
lowerneck -9.56784 2.08743 -8.74624
upperneck -7.83252 4.53235 13.5878
head -1.20489 2.61415 5.64949
rclavicle 2.28602e-014 -4.25399e-014
rhumerus -28.4616 -32.4921 -62.0793
rradius 66.8314
rwrist -32.6939
rhand -12.5766 25.514
rfingers 7.12502
rthumb 13.5013 -4.02838
lclavicle 2.28602e-014 -4.25399e-014
lhumerus -37.4928 -18.4876 90.673
lradius 64.9845
lwrist 32.3957
lhand -28.9774 38.7283
lfingers 7.12502
lthumb -2.32992 68.6953
rfemur -37.0156 -7.45122 10.9084
rtibia 61.2657
rfoot -6.5037 -8.05683
rtoes -41.4118
lfemur -14.8357 13.7491 -2.08705
ltibia 69.4367
lfoot -5.5966 -7.37149
ltoes -19.3366
21
root -32.494 14.9709 2.34061 -26.5862 85.5825 -21.2664
lowerback 21.5071 -1.36767 -10.2607
upperback 8.80973 -3.07781 2.35161
thorax -1.53133 -1.60071 9.09103
lowerneck -9.65315 2.86378 -8.75356
upperneck -6.04732 5.28244 12.2035
head -0.740969 2.97808 5.22903
rclavicle 3.4191e-014 -1.63003e-014
rhumerus -29.4474 -31.8183 -59.6086
rradius 65.1736
rwrist -36.6412
rhand -9.48079 24.8198
rfingers 7.12502
rthumb 16.4836 -4.49997
lclavicle 3.4191e-014 -1.63003e-014
lhumerus -38.5095 -16.66 93.6406
lradius 66.2326
lwrist 31.5012
lhand -28.5111 38.0651
lfingers 7.12502
lthumb -1.87956 68.0366
rfemur -36.9789 -7.4331 9.25133
rtibia 60.3442
rfoot -6.04865 -7.51607
rtoes -42.1893
lfemur -12.3683 12.9061 -2.58942
ltibia 67.195
lfoot -5.24683 -8.86954
ltoes -38.5462
22
root -32.1493 14.8829 2.35259 -19.9137 86.3033 -14.1207
lowerback 20.4227 -2.06303 -9.52019
upperback 9.54246 -3.70131 1.21783
thorax -0.19716 -1.94828 7.43393
lowerneck -9.9412 3.21233 -7.17959
upperneck -6.18098 5.65004 11.9712
head -0.726932 3.14853 4.90421
rclavicle -7.87187e-014 1.90833e-014
rhumerus -29.4192 -34.4684 -60.1536
rradius 63.7788
rwrist -39.2509
rhand -5.82854 24.3171
rfingers 7.12502
rthumb 19.9972 -4.67389
lclavicle -7.87187e-014 1.90833e-014
lhumerus -36.7567 -17.7489 93.456
lradius 67.2434
lwrist 31.3671
lhand -28.2977 37.6521
lfingers 7.12502
lthumb -1.6734 67.6253
rfemur -36.6144 -7.82377 7.33092
rtibia 59.419
rfoot -5.65021 -7.14257
rtoes -42.0689
lfemur -10.1886 11.8967 -3.53184
ltibia 65.3905
lfoot -5.17551 -10.5029
ltoes -20.9106
23
root -31.7951 14.8224 2.35355 -12.8948 86.7254 -6.81518
lowerback 19.284 -2.67881 -9.0749
upperback 10.1126 -4.2789 0.647629
thorax 1.02298 -2.27528 6.5595
lowerneck -10.4698 3.59182 -6.60938
upperneck -6.16417 6.15098 12.0021
head -0.672299 3.41311 4.83875
rclavicle -2.44505e-014 -2.06736e-014
rhumerus -29.078 -35.5493 -60.3788
rradius 62.8607
rwrist -39.7548
rhand -4.78268 23.3575
rfingers 7.12502
rthumb 21.0022 -5.52538
lclavicle -2.44505e-014 -2.06736e-014
lhumerus -35.2057 -17.8991 94.0023
lradius 68.881
lwrist 31.8747
lhand -28.4081 36.5218
lfingers 7.12502
lthumb -1.78006 66.4941
rfemur -36.2899 -8.07271 5.71261
rtibia 58.2664
rfoot -4.72215 -6.85494
rtoes -42.7769
lfemur -8.24942 11.2316 -4.31025
ltibia 64.5073
lfoot -4.84467 -11.0693
ltoes -2.41142
24
root -31.4477 14.7567 2.34942 -5.9401 87.0724 0.27344
lowerback 19.2181 -3.17574 -8.8553
upperback 9.79353 -4.93371 0.528434
thorax 0.78246 -2.57899 6.41591
lowerneck -10.7357 3.98462 -6.54103
upperneck -5.66131 6.63549 12.1008
head -0.530716 3.66786 4.87566
rclavicle -3.08116e-014 1.03368e-014
rhumerus -29.934 -35.1891 -59.4114
rradius 62.5281
rwrist -39.7174
rhand -3.885 22.3113
rfingers 7.12502
rthumb 21.8644 -6.47337
lclavicle -3.08116e-014 1.03368e-014
lhumerus -35.2356 -17.5798 95.5983
lradius 71.0678
lwrist 31.5952
lhand -28.5543 35.0453
lfingers 7.12502
lthumb -1.92126 65.0164
rfemur -36.0873 -8.32842 4.2835
rtibia 57.1113
rfoot -3.5236 -6.56959
rtoes -43.2191
lfemur -6.5184 10.4482 -4.90905
ltibia 64.5896
lfoot -3.99348 -10.2131
ltoes 16.7876
25
root -31.0885 14.7336 2.33711 0.48479 87.2299 6.80546
lowerback 19.6043 -3.46304 -9.18468
upperback 9.09095 -5.47349 1.09076
thorax 0.0124981 -2.83716 7.35803
lowerneck -10.8182 4.52494 -6.94922
upperneck -4.6694 7.25689 11.3865
head -0.284436 3.97523 4.74271
rclavicle -6.16232e-015 -7.15625e-015
rhumerus -30.6295 -34.2408 -57.4763
rradius 62.1173
rwrist -39.3838
rhand -3.04626 21.271
rfingers 7.12502
rthumb 22.6696 -7.4175
lclavicle -6.16232e-015 -7.15625e-015
lhumerus -35.3368 -16.6669 98.2614
lradius 72.959
lwrist 30.2648
lhand -28.1784 33.9996
lfingers 7.12502
lthumb -1.55817 63.9736
rfemur -35.495 -8.39667 2.98725
rtibia 55.7193
rfoot -2.58004 -6.18091
rtoes -41.7793
lfemur -5.66492 10.5109 -5.5742
ltibia 65.23
lfoot -6.64477 -6.71747
ltoes -15.6077
26
root -30.8088 14.6462 2.3589 17.8692 88.9949 23.5859
lowerback 18.8356 -4.43603 -8.4873
upperback 9.18135 -6.55874 0.969016
thorax 0.598963 -3.3856 6.91808
lowerneck -11.2874 4.7764 -6.26108
upperneck -4.85102 7.55553 10.918
head -0.254455 4.12628 4.50491
rclavicle -1.41733e-013 4.05521e-014
rhumerus -30.0811 -35.9337 -57.5338
rradius 61.4206
rwrist -38.4413
rhand -1.62134 21.0399
rfingers 7.12502
rthumb 24.0365 -7.47498
lclavicle -1.41733e-013 4.05521e-014
lhumerus -33.369 -17.7643 99.0073
lradius 74.3138
lwrist 29.5233
lhand -27.9612 33.3418
lfingers 7.12502
lthumb -1.34847 63.3173
rfemur -35.3733 -9.66478 1.83048
rtibia 54.68
rfoot -1.23675 -6.18698
rtoes -41.3776
lfemur -6.43178 9.49928 -6.0565
ltibia 66.1801
lfoot -7.50309 -4.33735
ltoes -28.5422
27
root -30.3943 14.5604 2.32197 8.018 87.5577 14.3353
lowerback 18.3886 -4.25818 -8.11565
upperback 9.15498 -6.25078 1.19044
thorax 0.720589 -3.23815 6.86565
lowerneck -11.4174 5.06627 -6.1227
upperneck -4.41559 7.8519 10.0005
head -0.100284 4.25845 4.21801
rclavicle 1.33186e-014 2.38542e-015
rhumerus -30.2378 -35.4814 -56.3545
rradius 61.7059
rwrist -41.3566
rhand -1.67664 20.8538
rfingers 7.12502
rthumb 23.9835 -7.66801
lclavicle 1.33186e-014 2.38542e-015
lhumerus -32.0336 -18.1613 101.065
lradius 75.1559
lwrist 28.391
lhand -26.6716 33.4356
lfingers 7.12502
lthumb -0.102861 63.4154
rfemur -34.7545 -8.40343 0.863374
rtibia 53.6295
rfoot 0.417249 -4.99514
rtoes -44.5405
lfemur -3.42532 10.921 -6.16394
ltibia 66.4734
lfoot -8.92833 -2.6767
ltoes -30.4136
28
root -30.0536 14.4646 2.31932 7.01446 87.5597 13.4118
lowerback 18.11 -4.57399 -7.22557
upperback 9.05071 -6.52578 1.10508
thorax 0.662533 -3.3391 6.29658
lowerneck -11.1696 5.3604 -5.63518
upperneck -4.50717 8.15563 9.23164
head -0.169517 4.38887 4.28766
rclavicle 3.95581e-014 -2.08724e-014
rhumerus -30.8819 -35.7722 -55.67
rradius 62.5304
rwrist -42.9476
rhand 0.327318 20.0514
rfingers 7.12502
rthumb 25.9038 -8.20394
lclavicle 3.95581e-014 -2.08724e-014
lhumerus -30.4932 -19.2541 101.917
lradius 75.9425
lwrist 26.4282
lhand -28.047 27.8888
lfingers 7.12502
lthumb -1.43127 57.8638
rfemur -34.3841 -7.92473 0.108892
rtibia 52.9383
rfoot 1.89609 -4.38207
rtoes -45.3103
lfemur -2.13577 11.3051 -6.07753
ltibia 66.9946
lfoot -9.52851 -1.46465
ltoes -29.6785
29
root -29.7146 14.3616 2.31481 12.5316 87.3884 19.0891
lowerback 17.7827 -4.72555 -7.08421
upperback 9.08409 -6.6805 1.31613
thorax 0.901771 -3.43136 6.42875
lowerneck -11.083 5.62353 -5.651
upperneck -4.66289 8.50174 8.68231
head -0.241515 4.54927 4.09196
rclavicle -2.55687e-014 1.59028e-014
rhumerus -30.8676 -35.9472 -54.8619
rradius 63.4351
rwrist -43.6948
rhand 2.7651 18.9981
rfingers 7.12502
rthumb 28.2361 -8.89449
lclavicle -2.55687e-014 1.59028e-014
lhumerus -28.6807 -20.1025 102.935
lradius 76.6868
lwrist 24.2311
lhand -28.3442 26.2614
lfingers 7.12502
lthumb -1.71837 56.2342
rfemur -33.9366 -7.35758 -0.968973
rtibia 52.4637
rfoot 2.91271 -3.70796
rtoes -43.7053
lfemur -0.649161 11.5695 -6.44493
ltibia 67.2893
lfoot -10.0661 0.135571
ltoes -27.9235
30
root -29.3796 14.2473 2.30751 17.1507 87.0916 23.5079
lowerback 17.1367 -4.87367 -6.81974
upperback 9.02411 -6.81351 1.4861
thorax 1.17737 -3.51027 6.4177
lowerneck -11.0481 5.82543 -5.51288
upperneck -4.79617 8.74838 8.13162
head -0.279705 4.66034 3.87004
rclavicle 8.42785e-014 -2.98177e-016
rhumerus -30.6312 -36.0636 -54.3227
rradius 64.216
rwrist -43.9647
rhand 4.6813 18.4012
rfingers 7.12502
rthumb 30.0659 -9.17412
lclavicle 8.42785e-014 -2.98177e-016
lhumerus -27.0856 -21.0463 103.679
lradius 77.4315
lwrist 22.0225
lhand -28.846 24.2249
lfingers 7.12502
lthumb -2.20295 54.1933
rfemur -33.8922 -6.89785 -1.95208
rtibia 52.406
rfoot 3.21399 -2.9419
rtoes -40.1164
lfemur 0.363812 11.8695 -6.95446
ltibia 67.7712
lfoot -10.4531 1.84995
ltoes -26.1694
31
root -29.0512 14.1245 2.30124 20.7013 86.8396 26.7717
lowerback 16.5219 -5.08249 -6.48862
upperback 8.90564 -7.0286 1.62972
thorax 1.37434 -3.62244 6.35556
lowerneck -10.9059 6.00815 -5.41686
upperneck -4.98645 8.98471 7.90194
head -0.369724 4.77037 3.76296
rclavicle 7.68303e-014 -2.69353e-014
rhumerus -30.0836 -35.835 -54.1298
rradius 64.8391
rwrist -43.9609
rhand 6.26711 18.0958
rfingers 7.12502
rthumb 31.5778 -9.19396
lclavicle 7.68303e-014 -2.69353e-014
lhumerus -25.758 -21.8473 104.116
lradius 78.1527
lwrist 19.2066
lhand -29.243 22.8396
lfingers 7.12502
lthumb -2.5864 52.8037
rfemur -33.9187 -6.51311 -2.82074
rtibia 52.7391
rfoot 0.353834 -4.72911
rtoes -45.0434
lfemur 1.11364 12.0957 -7.45366
ltibia 68.4255
lfoot -10.3448 3.4931
ltoes -28.489
